arm26_states
version=1
nRows=11
nColumns=17
inDegrees=yes

# SIMM Motion File Header:
name arm26_states
datacolumns 17
datarows 11
otherdata 1
range 0.68472267 0.68548031
endheader
time	/jointset/r_shoulder/r_shoulder_elev/value	/jointset/r_shoulder/r_shoulder_elev/speed	/jointset/r_elbow/r_elbow_flex/value	/jointset/r_elbow/r_elbow_flex/speed	/forceset/TRIlong/activation	/forceset/TRIlong/fiber_length	/forceset/TRIlat/activation	/forceset/TRIlat/fiber_length	/forceset/TRImed/activation	/forceset/TRImed/fiber_length	/forceset/BIClong/activation	/forceset/BIClong/fiber_length	/forceset/BICshort/activation	/forceset/BICshort/fiber_length	/forceset/BRA/activation	/forceset/BRA/fiber_length
      0.68472267	     11.96032855	    240.90362652	    166.26105463	   -230.09409280	     -0.05241593	      0.19065429	     -0.05241593	      0.11839187	     -0.05241593	      0.11341492	29949118364275822134982679088332140699232053420931772067062804923595028605664946823787782673937081619266390214063292829141790076730518303611764539219459314982844048080896.00000000	      0.04496189	54198852288689918979448261949618000466397335920872994793876781567594007460071971848236422595388339076348886397004140261854477646492241551075311616.00000000	      0.04738693	     -0.05241593	      0.04129576
      0.68479439	     11.97759729	    240.64006021	    166.24455437	   -230.01979076	     -0.05242516	      0.19066766	     -0.05242516	      0.11839527	     -0.05242516	      0.11341840	29949118364275822134982679088332140699232053420931772067062804923595028605664946823787782673937081619266390214063292829141790076730518303611764539219459314982844048080896.00000000	      0.04495412	54198852288689918979448261949618000466397335920872994793876781567594007460071971848236422595388339076348886397004140261854477646492241551075311616.00000000	      0.04738675	     -0.05242516	      0.04129883
      0.68486299	     11.99409599	    240.38779672	    166.22877798	   -229.94812566	     -0.05243399	      0.19068180	     -0.05243399	      0.11839851	     -0.05243399	      0.11342172	29949118364275822134982679088332140699232053420931772067062804923595028605664946823787782673937081619266390214063292829141790076730518303611764539219459314982844048080896.00000000	      0.04494669	54198852288689918979448261949618000466397335920872994793876781567594007460071971848236422595388339076348886397004140261854477646492241551075311616.00000000	      0.04738658	     -0.05243399	      0.04130178
      0.68494016	     12.01263433	    240.10417649	    166.21103736	   -229.86696833	     -0.05244393	      0.19069692	     -0.05244393	      0.11840216	     -0.05244393	      0.11342545	29949118364275822134982679088332140699232053420931772067062804923595028605664946823787782673937081619266390214063292829141790076730518303611764539219459314982844048080896.00000000	      0.04493836	54198852288689918979448261949618000466397335920872994793876781567594007460071971848236422595388339076348886397004140261854477646492241551075311616.00000000	      0.04738640	     -0.05244393	      0.04130509
      0.68501732	     12.03115077	    239.82011441	    166.19330303	   -229.78496898	     -0.05245386	      0.19071196	     -0.05245386	      0.11840581	     -0.05245386	      0.11342918	29949118364275822134982679088332140699232053420931772067062804923595028605664946823787782673937081619266390214063292829141790076730518303611764539219459314982844048080896.00000000	      0.04493004	54198852288689918979448261949618000466397335920872994793876781567594007460071971848236422595388339076348886397004140261854477646492241551075311616.00000000	      0.04738624	     -0.05245386	      0.04130840
      0.68509448	     12.04964529	    239.53566585	    166.17557506	   -229.70215148	     -0.05246380	      0.19072686	     -0.05246380	      0.11840946	     -0.05246380	      0.11343291	29949118364275822134982679088332140699232053420931772067062804923595028605664946823787782673937081619266390214063292829141790076730518303611764539219459314982844048080896.00000000	      0.04492174	54198852288689918979448261949618000466397335920872994793876781567594007460071971848236422595388339076348886397004140261854477646492241551075311616.00000000	      0.04738608	     -0.05246380	      0.04131172
      0.68517165	     12.06811784	    239.25096962	    166.15785351	   -229.61857713	     -0.05247373	      0.19074192	     -0.05247373	      0.11841310	     -0.05247373	      0.11343664	29949118364275822134982679088332140699232053420931772067062804923595028605664946823787782673937081619266390214063292829141790076730518303611764539219459314982844048080896.00000000	      0.04491345	54198852288689918979448261949618000466397335920872994793876781567594007460071971848236422595388339076348886397004140261854477646492241551075311616.00000000	      0.04738595	     -0.05247373	      0.04131503
      0.68524881	     12.08656841	    238.96584183	    166.14013844	   -229.53416272	     -0.05248367	      0.19075673	     -0.05248367	      0.11841675	     -0.05248367	      0.11344037	29949118364275822134982679088332140699232053420931772067062804923595028605664946823787782673937081619266390214063292829141790076730518303611764539219459314982844048080896.00000000	      0.04490518	54198852288689918979448261949618000466397335920872994793876781567594007460071971848236422595388339076348886397004140261854477646492241551075311616.00000000	      0.04738582	     -0.05248367	      0.04131835
      0.68532598	     12.10499697	    238.68052826	    166.12242991	   -229.44901754	     -0.05249360	      0.19077179	     -0.05249360	      0.11842039	     -0.05249360	      0.11344410	29949118364275822134982679088332140699232053420931772067062804923595028605664946823787782673937081619266390214063292829141790076730518303611764539219459314982844048080896.00000000	      0.04489692	54198852288689918979448261949618000466397335920872994793876781567594007460071971848236422595388339076348886397004140261854477646492241551075311616.00000000	      0.04738571	     -0.05249360	      0.04132167
      0.68540314	     12.12340349	    238.39474634	    166.10472798	   -229.36301408	     -0.05250354	      0.19078658	     -0.05250354	      0.11842403	     -0.05250354	      0.11344782	29949118364275822134982679088332140699232053420931772067062804923595028605664946823787782673937081619266390214063292829141790076730518303611764539219459314982844048080896.00000000	      0.04488868	54198852288689918979448261949618000466397335920872994793876781567594007460071971848236422595388339076348886397004140261854477646492241551075311616.00000000	      0.04738561	     -0.05250354	      0.04132499
      0.68548031	     12.14178796	    238.10876696	    166.08703273	   -229.27627297	     -0.05251347	      0.19080162	     -0.05251347	      0.11842768	     -0.05251347	      0.11345155	29949118364275822134982679088332140699232053420931772067062804923595028605664946823787782673937081619266390214063292829141790076730518303611764539219459314982844048080896.00000000	      0.04488045	54198852288689918979448261949618000466397335920872994793876781567594007460071971848236422595388339076348886397004140261854477646492241551075311616.00000000	      0.04738552	     -0.05251347	      0.04132831
